0
SECTION
2
HEADER
9
$INSUNITS
70
4
9
$ACADVER
1
AC1014
9
$HANDSEED
5
FFFF
0
ENDSEC
0
SECTION
2
TABLES
0
TABLE
2
VPORT
5
8
100
AcDbSymbolTable
0
ENDTAB
0
TABLE
2
LTYPE
5
5
100
AcDbSymbolTable
0
LTYPE
5
14
100
AcDbSymbolTableRecord
100
AcDbLinetypeTableRecord
2
BYBLOCK
70
0
0
LTYPE
5
15
100
AcDbSymbolTableRecord
100
AcDbLinetypeTableRecord
2
BYLAYER
70
0
0
ENDTAB
0
TABLE
2
LAYER
5
2
100
AcDbSymbolTable
70
2
0
LAYER
5
50
100
AcDbSymbolTableRecord
100
AcDbLayerTableRecord
2
0
70
0
6
CONTINUOUS
0
ENDTAB
0
TABLE
2
STYLE
5
3
100
AcDbSymbolTable
70
1
0
STYLE
5
11
100
AcDbSymbolTableRecord
100
AcDbTextStyleTableRecord
2
STANDARD
70
0
0
ENDTAB
0
TABLE
2
VIEW
5
6
100
AcDbSymbolTable
70
0
0
ENDTAB
0
TABLE
2
UCS
5
7
100
AcDbSymbolTable
70
0
0
ENDTAB
0
TABLE
2
APPID
5
9
100
AcDbSymbolTable
70
2
0
APPID
5
12
100
AcDbSymbolTableRecord
100
AcDbRegAppTableRecord
2
ACAD
70
0
0
ENDTAB
0
TABLE
2
DIMSTYLE
5
A
100
AcDbSymbolTable
70
1
0
ENDTAB
0
TABLE
2
BLOCK_RECORD
5
1
100
AcDbSymbolTable
70
1
0
BLOCK_RECORD
5
1F
100
AcDbSymbolTableRecord
100
AcDbBlockTableRecord
2
*MODEL_SPACE
0
BLOCK_RECORD
5
1B
100
AcDbSymbolTableRecord
100
AcDbBlockTableRecord
2
*PAPER_SPACE
0
ENDTAB
0
ENDSEC
0
SECTION
2
BLOCKS
0
BLOCK
5
20
100
AcDbEntity
100
AcDbBlockBegin
2
*MODEL_SPACE
0
ENDBLK
5
21
100
AcDbEntity
100
AcDbBlockEnd
0
BLOCK
5
1C
100
AcDbEntity
100
AcDbBlockBegin
2
*PAPER_SPACE
0
ENDBLK
5
1D
100
AcDbEntity
100
AcDbBlockEnd
0
ENDSEC
0
SECTION
2
ENTITIES
0
LWPOLYLINE
5
100
100
AcDbEntity
8
0
100
AcDbPolyline
90
76
70
1
43
0.0
10
42.5
20
0
10
50
20
0
10
50
20
7.5
10
50
20
7.7000000000000011
10
46.200000000000003
20
7.7000000000000011
10
46.200000000000003
20
12.300000000000001
10
50
20
12.300000000000001
10
50
20
12.5
10
50
20
22.5
10
50
20
22.699999999999999
10
46.200000000000003
20
22.699999999999999
10
46.200000000000003
20
27.299999999999986
10
50
20
27.299999999999986
10
50
20
27.5
10
50
20
37.5
10
50
20
37.700000000000003
10
46.200000000000003
20
37.700000000000003
10
46.200000000000003
20
42.300000000000004
10
50
20
42.300000000000004
10
50
20
42.5
10
50.000000745058053
20
50
10
42.5
20
50
10
42.300000000000011
20
50
10
42.300000000000011
20
46.199999998509888
10
37.700000000000003
20
46.199999964237222
10
37.700000000000003
20
49.99999996274709
10
37.5
20
49.99999996274709
10
27.5
20
49.99999996274709
10
27.299999999999986
20
49.99999996274709
10
27.299999999999986
20
46.199999962747086
10
22.699999999999999
20
46.199999962747086
10
22.699999999999999
20
49.99999996274709
10
22.5
20
49.99999996274709
10
12.5
20
49.99999996274709
10
12.300000000000001
20
49.99999996274709
10
12.299999999999988
20
46.199999962747086
10
7.7000000000000011
20
46.199999962747086
10
7.7000000000000037
20
49.99999996274709
10
7.5000000000000018
20
49.99999996274709
10
3.7252904000000005e-08
20
50.000000745058053
10
3.7252904000000005e-08
20
42.5
10
3.7252904094842165e-08
20
42.300000000000004
10
3.8000000372529055
20
42.300000000000004
10
3.8000000372529055
20
37.700000000000003
10
3.7252904000000005e-08
20
37.700000000000003
10
3.7252904000000005e-08
20
37.5
10
3.7252904000000005e-08
20
27.5
10
3.7252904094842165e-08
20
27.299999999999986
10
3.8000000372529055
20
27.299999999999986
10
3.8000000372529055
20
22.699999999999999
10
3.7252904000000005e-08
20
22.699999999999999
10
3.7252904000000005e-08
20
22.5
10
3.7252901000000001e-08
20
12.5
10
3.7252900764173091e-08
20
12.300000000000001
10
3.800000037252901
20
12.300000000000001
10
3.8000000372529055
20
7.7000000000000011
10
3.7252904000000005e-08
20
7.7000000000000011
10
3.7252904000000005e-08
20
7.5
10
0
20
0
10
7.5
20
0
10
7.7000000000000011
20
0
10
7.7000000000000011
20
3.7999999999999998
10
12.299999999999988
20
3.7999999999999998
10
12.299999999999988
20
0
10
12.5
20
0
10
22.5
20
0
10
22.699999999999999
20
0
10
22.699999999999999
20
3.7999999999999998
10
27.299999999999986
20
3.7999999999999998
10
27.299999999999986
20
0
10
27.5
20
0
10
37.5
20
0
10
37.700000000000003
20
0
10
37.700000000000003
20
3.7999999999999998
10
42.300000000000011
20
3.7999999999999998
10
42.300000000000011
20
0
0
ENDSEC
0
SECTION
2
OBJECTS
0
DICTIONARY
5
C
100
AcDbDictionary
3
ACAD_GROUP
350
D
3
ACAD_MLINESTYLE
350
17
0
DICTIONARY
5
D
100
AcDbDictionary
0
DICTIONARY
5
1A
330
C
100
AcDbDictionary
0
DICTIONARY
5
17
100
AcDbDictionary
0
ENDSEC
0
EOF
