0
SECTION
2
HEADER
9
$INSUNITS
70
4
9
$ACADVER
1
AC1014
9
$HANDSEED
5
FFFF
0
ENDSEC
0
SECTION
2
TABLES
0
TABLE
2
VPORT
5
8
100
AcDbSymbolTable
0
ENDTAB
0
TABLE
2
LTYPE
5
5
100
AcDbSymbolTable
0
LTYPE
5
14
100
AcDbSymbolTableRecord
100
AcDbLinetypeTableRecord
2
BYBLOCK
70
0
0
LTYPE
5
15
100
AcDbSymbolTableRecord
100
AcDbLinetypeTableRecord
2
BYLAYER
70
0
0
ENDTAB
0
TABLE
2
LAYER
5
2
100
AcDbSymbolTable
70
2
0
LAYER
5
50
100
AcDbSymbolTableRecord
100
AcDbLayerTableRecord
2
0
70
0
6
CONTINUOUS
0
ENDTAB
0
TABLE
2
STYLE
5
3
100
AcDbSymbolTable
70
1
0
STYLE
5
11
100
AcDbSymbolTableRecord
100
AcDbTextStyleTableRecord
2
STANDARD
70
0
0
ENDTAB
0
TABLE
2
VIEW
5
6
100
AcDbSymbolTable
70
0
0
ENDTAB
0
TABLE
2
UCS
5
7
100
AcDbSymbolTable
70
0
0
ENDTAB
0
TABLE
2
APPID
5
9
100
AcDbSymbolTable
70
2
0
APPID
5
12
100
AcDbSymbolTableRecord
100
AcDbRegAppTableRecord
2
ACAD
70
0
0
ENDTAB
0
TABLE
2
DIMSTYLE
5
A
100
AcDbSymbolTable
70
1
0
ENDTAB
0
TABLE
2
BLOCK_RECORD
5
1
100
AcDbSymbolTable
70
1
0
BLOCK_RECORD
5
1F
100
AcDbSymbolTableRecord
100
AcDbBlockTableRecord
2
*MODEL_SPACE
0
BLOCK_RECORD
5
1B
100
AcDbSymbolTableRecord
100
AcDbBlockTableRecord
2
*PAPER_SPACE
0
ENDTAB
0
ENDSEC
0
SECTION
2
BLOCKS
0
BLOCK
5
20
100
AcDbEntity
100
AcDbBlockBegin
2
*MODEL_SPACE
0
ENDBLK
5
21
100
AcDbEntity
100
AcDbBlockEnd
0
BLOCK
5
1C
100
AcDbEntity
100
AcDbBlockBegin
2
*PAPER_SPACE
0
ENDBLK
5
1D
100
AcDbEntity
100
AcDbBlockEnd
0
ENDSEC
0
SECTION
2
ENTITIES
0
LWPOLYLINE
5
100
100
AcDbEntity
8
0
100
AcDbPolyline
90
8
70
1
43
0.0
10
7.9999999999999893
20
-54
42
-0.41421356237309503
10
1.999999999999994
20
-48.000000000000007
10
2.0000000000000018
20
-23.999999999999993
42
-0.41421356237309503
10
7.9999999999999893
20
-18.000000000000007
10
32.000000000000014
20
-18.000000000000007
42
-0.41421356237309503
10
37.999999999999986
20
-23.999999999999986
10
37.999999999999986
20
-48
42
-0.41421356237309503
10
31.999999999999989
20
-53.999999999999993
0
LWPOLYLINE
5
101
100
AcDbEntity
8
0
100
AcDbPolyline
90
76
70
1
43
0.0
10
-4.9999999627470961
20
-11.000000163912773
10
-4.9999999627470961
20
-18.499999999999996
10
-4.9999999627470961
20
-18.699999999999996
10
-1.199999903142448
20
-18.699999999999996
10
-1.1999999031424513
20
-23.299999999999997
10
-4.9999999627470961
20
-23.299999999999997
10
-4.9999999627470961
20
-23.499999999999996
10
-4.9999999627470961
20
-33.5
10
-4.9999999627470961
20
-33.699999999999996
10
-1.199999903142448
20
-33.699999999999996
10
-1.1999999031424513
20
-38.299999999999997
10
-4.9999999627470961
20
-38.299999999999997
10
-4.9999999627470961
20
-38.5
10
-4.9999999627470988
20
-48.5
10
-4.9999999627470988
20
-48.699999999999989
10
-1.1999999031424522
20
-48.699999999999989
10
-1.1999999031424513
20
-53.299999999999997
10
-4.9999999627470961
20
-53.299999999999997
10
-4.9999999627470961
20
-53.5
10
-4.9999999627471032
20
-61.000000908970833
10
2.5
20
-61
10
2.7000000000000002
20
-61
10
2.7000000000000002
20
-57.199999940395344
10
7.3000000745058014
20
-57.199999940395344
10
7.3000000745058014
20
-61
10
7.5000000745058015
20
-61
10
17.500000074505802
20
-61
10
17.700000074505802
20
-61
10
17.700000074505802
20
-57.199999999999989
10
22.300000149011613
20
-57.199999999999989
10
22.300000149011613
20
-61
10
22.500000149011612
20
-61
10
32.499999925494187
20
-61
10
32.69999992549419
20
-61
10
32.69999992549419
20
-57.199999940395344
10
37.299999999999997
20
-57.199999940395344
10
37.299999999999997
20
-61
10
37.5
20
-61
10
45.000000670552254
20
-61
10
45
20
-53.5
10
45
20
-53.299999999999997
10
41.199999940395344
20
-53.299999999999997
10
41.199999940395344
20
-48.699999925494183
10
45
20
-48.699999925494183
10
45
20
-48.499999925494194
10
45
20
-38.500000149011619
10
45
20
-38.300000149011616
10
41.199999999999982
20
-38.300000149011616
10
41.199999999999982
20
-33.700000074505809
10
45
20
-33.700000074505809
10
45
20
-33.500000074505806
10
45
20
-23.500000074505806
10
45
20
-23.300000074505807
10
41.199999940395344
20
-23.300000074505807
10
41.199999940395344
20
-18.699999999999996
10
45
20
-18.699999999999996
10
45
20
-18.499999999999996
10
45
20
-11.000000163912773
10
37.5
20
-11.000000037252899
10
37.299999999999997
20
-11.000000037252899
10
37.299999999999997
20
-14.800000096857545
10
32.700000000000003
20
-14.800000096857545
10
32.700000000000003
20
-11.000000037252899
10
32.5
20
-11.000000037252899
10
22.5
20
-11.000000037252908
10
22.300000000000001
20
-11.000000037252908
10
22.300000000000001
20
-14.800000096857545
10
17.699999999999999
20
-14.800000096857545
10
17.699999999999999
20
-11.000000037252908
10
17.5
20
-11.000000037252908
10
7.5
20
-11.000000037252908
10
7.2999999999999998
20
-11.000000037252908
10
7.2999999999999998
20
-14.800000096857545
10
2.7000000000000011
20
-14.800000096857545
10
2.7000000000000011
20
-11.000000037252908
10
2.5000000000000009
20
-11.000000037252908
0
ENDSEC
0
SECTION
2
OBJECTS
0
DICTIONARY
5
C
100
AcDbDictionary
3
ACAD_GROUP
350
D
3
ACAD_MLINESTYLE
350
17
0
DICTIONARY
5
D
100
AcDbDictionary
0
DICTIONARY
5
1A
330
C
100
AcDbDictionary
0
DICTIONARY
5
17
100
AcDbDictionary
0
ENDSEC
0
EOF
